# xmcd CD database file
#
# Track frame offsets:
#	182
#	23652
#	48062
#	69962
#	91327
#	112812
#	131587
#	150090
#	184142
#	205195
#	222865
#
# Disc length: 3040 seconds
#
# Revision: 0
# Processed by: cddbd v1.5.2PL0 Copyright (c) Steve Scherf et al.
# Submitted via: CDex 1.51
#
DISCID=800bde0b
DTITLE=James Wailin' - Rhythm of Life
DYEAR=1993
DGENRE=Blues
TTITLE0=Ain't It All Right
TTITLE1=Rhythm of Life
TTITLE2=Come Back To Me
TTITLE3=If Not In This World
TTITLE4=Have Mercy
TTITLE5=Comin' Home
TTITLE6=Tell The Truth
TTITLE7=Used To Be Her Man
TTITLE8=For The Love Of A Woman
TTITLE9=Bluez for Marrea
TTITLE10=And In Conclusion
EXTD=YEAR: 1993
EXTT0=
EXTT1=
EXTT2=
EXTT3=
EXTT4=
EXTT5=
EXTT6=
EXTT7=
EXTT8=
EXTT9=
EXTT10=
PLAYORDER=
